<svg xmlns="http://www.w3.org/2000/svg" width="360" height="146" viewBox="0 0 360 146" role="img"><title>Language distribution by bytes in public original repositories</title><style>text{font-family:-apple-system,BlinkMacSystemFont,Segoe UI,Arial,sans-serif}</style><rect x=".5" y=".5" width="359" height="145" rx="5" fill="#0d1117" stroke="#30363d"/><text x="16" y="25" fill="#9bbf98" font-size="13" font-weight="600" >Most used languages</text><rect x="16.00" y="39" width="234.53" height="7" fill="#3572A5"/><rect x="251.23" y="39" width="43.58" height="7" fill="#41b883"/><rect x="295.51" y="39" width="15.25" height="7" fill="#b07219"/><rect x="311.46" y="39" width="10.69" height="7" fill="#3178c6"/><rect x="322.86" y="39" width="7.58" height="7" fill="#663399"/><rect x="331.14" y="39" width="12.16" height="7" fill="#89947d"/><circle cx="19" cy="63" r="3" fill="#3572A5"/><text x="28" y="67" fill="#e6edf3" font-size="11" font-weight="400" >Python</text><text x="168" y="67" fill="#9198a1" font-size="10" font-weight="400" text-anchor="end">71.7%</text><circle cx="185" cy="63" r="3" fill="#41b883"/><text x="194" y="67" fill="#e6edf3" font-size="11" font-weight="400" >Vue</text><text x="334" y="67" fill="#9198a1" font-size="10" font-weight="400" text-anchor="end">13.5%</text><circle cx="19" cy="82" r="3" fill="#b07219"/><text x="28" y="86" fill="#e6edf3" font-size="11" font-weight="400" >Java</text><text x="168" y="86" fill="#9198a1" font-size="10" font-weight="400" text-anchor="end">4.9%</text><circle cx="185" cy="82" r="3" fill="#3178c6"/><text x="194" y="86" fill="#e6edf3" font-size="11" font-weight="400" >TypeScript</text><text x="334" y="86" fill="#9198a1" font-size="10" font-weight="400" text-anchor="end">3.5%</text><circle cx="19" cy="101" r="3" fill="#663399"/><text x="28" y="105" fill="#e6edf3" font-size="11" font-weight="400" >CSS</text><text x="168" y="105" fill="#9198a1" font-size="10" font-weight="400" text-anchor="end">2.5%</text><circle cx="185" cy="101" r="3" fill="#89947d"/><text x="194" y="105" fill="#e6edf3" font-size="11" font-weight="400" >Other</text><text x="334" y="105" fill="#9198a1" font-size="10" font-weight="400" text-anchor="end">3.9%</text><text x="16" y="134" fill="#9198a1" font-size="9" font-weight="400" >Public original repositories · Code bytes</text></svg>