<svg xmlns="http://www.w3.org/2000/svg" width="360" height="146" viewBox="0 0 360 146" role="img"><title>Language distribution by bytes in public original repositories</title><style>text{font-family:-apple-system,BlinkMacSystemFont,Segoe UI,Arial,sans-serif}</style><rect x=".5" y=".5" width="359" height="145" rx="5" fill="#ffffff" stroke="#d1d9e0"/><text x="16" y="25" fill="#4b7658" font-size="13" font-weight="600" >Most used languages</text><rect x="16.00" y="39" width="193.44" height="7" fill="#3572A5"/><rect x="210.14" y="39" width="69.51" height="7" fill="#41b883"/><rect x="280.35" y="39" width="24.60" height="7" fill="#b07219"/><rect x="305.65" y="39" width="17.37" height="7" fill="#3178c6"/><rect x="323.71" y="39" width="8.00" height="7" fill="#89e051"/><rect x="332.41" y="39" width="10.89" height="7" fill="#89947d"/><circle cx="19" cy="63" r="3" fill="#3572A5"/><text x="28" y="67" fill="#1f2328" font-size="11" font-weight="400" >Python</text><text x="168" y="67" fill="#59636e" font-size="10" font-weight="400" text-anchor="end">59.2%</text><circle cx="185" cy="63" r="3" fill="#41b883"/><text x="194" y="67" fill="#1f2328" font-size="11" font-weight="400" >Vue</text><text x="334" y="67" fill="#59636e" font-size="10" font-weight="400" text-anchor="end">21.4%</text><circle cx="19" cy="82" r="3" fill="#b07219"/><text x="28" y="86" fill="#1f2328" font-size="11" font-weight="400" >Java</text><text x="168" y="86" fill="#59636e" font-size="10" font-weight="400" text-anchor="end">7.7%</text><circle cx="185" cy="82" r="3" fill="#3178c6"/><text x="194" y="86" fill="#1f2328" font-size="11" font-weight="400" >TypeScript</text><text x="334" y="86" fill="#59636e" font-size="10" font-weight="400" text-anchor="end">5.5%</text><circle cx="19" cy="101" r="3" fill="#89e051"/><text x="28" y="105" fill="#1f2328" font-size="11" font-weight="400" >Shell</text><text x="168" y="105" fill="#59636e" font-size="10" font-weight="400" text-anchor="end">2.7%</text><circle cx="185" cy="101" r="3" fill="#89947d"/><text x="194" y="105" fill="#1f2328" font-size="11" font-weight="400" >Other</text><text x="334" y="105" fill="#59636e" font-size="10" font-weight="400" text-anchor="end">3.5%</text><text x="16" y="134" fill="#59636e" font-size="9" font-weight="400" >Public original repositories · Code bytes</text></svg>